<?xml version="1.0" encoding="UTF-8" standalone="no"?>
<!DOCTYPE svg PUBLIC "-//W3C//DTD SVG 1.1//EN"
 "http://www.w3.org/Graphics/SVG/1.1/DTD/svg11.dtd">
<!-- Generated by graphviz version 2.38.0 (20140413.2041)
 -->
<!-- Title: snakemake_dag Pages: 1 -->
<svg width="607pt" height="620pt"
 viewBox="0.00 0.00 606.50 620.00" xmlns="http://www.w3.org/2000/svg" xmlns:xlink="http://www.w3.org/1999/xlink">
<g id="graph0" class="graph" transform="scale(1 1) rotate(0) translate(4 616)">
<title>snakemake_dag</title>
<polygon fill="white" stroke="none" points="-4,4 -4,-616 602.5,-616 602.5,4 -4,4"/>
<!-- 0 -->
<g id="node1" class="node"><title>0</title>
<path fill="none" stroke="#567bd8" stroke-width="2" d="M467,-540C467,-540 401,-540 401,-540 395,-540 389,-534 389,-528 389,-528 389,-516 389,-516 389,-510 395,-504 401,-504 401,-504 467,-504 467,-504 473,-504 479,-510 479,-516 479,-516 479,-528 479,-528 479,-534 473,-540 467,-540"/>
<text text-anchor="middle" x="434" y="-519.5" font-family="sans" font-size="10.00">pairtools_parse</text>
</g>
<!-- 4 -->
<g id="node5" class="node"><title>4</title>
<path fill="none" stroke="#c6d856" stroke-width="2" d="M463,-468C463,-468 405,-468 405,-468 399,-468 393,-462 393,-456 393,-456 393,-444 393,-444 393,-438 399,-432 405,-432 405,-432 463,-432 463,-432 469,-432 475,-438 475,-444 475,-444 475,-456 475,-456 475,-462 469,-468 463,-468"/>
<text text-anchor="middle" x="434" y="-447.5" font-family="sans" font-size="10.00">pairtools_sort</text>
</g>
<!-- 0&#45;&gt;4 -->
<g id="edge5" class="edge"><title>0&#45;&gt;4</title>
<path fill="none" stroke="grey" stroke-width="2" d="M434,-503.697C434,-495.983 434,-486.712 434,-478.112"/>
<polygon fill="grey" stroke="grey" stroke-width="2" points="437.5,-478.104 434,-468.104 430.5,-478.104 437.5,-478.104"/>
</g>
<!-- 1 -->
<g id="node2" class="node"><title>1</title>
<path fill="none" stroke="#59d856" stroke-width="2" d="M526,-108C526,-108 494,-108 494,-108 488,-108 482,-102 482,-96 482,-96 482,-84 482,-84 482,-78 488,-72 494,-72 494,-72 526,-72 526,-72 532,-72 538,-78 538,-84 538,-84 538,-96 538,-96 538,-102 532,-108 526,-108"/>
<text text-anchor="middle" x="510" y="-87.5" font-family="sans" font-size="10.00">mcooler</text>
</g>
<!-- 10 -->
<g id="node11" class="node"><title>10</title>
<path fill="none" stroke="#56a2d8" stroke-width="2" d="M553,-36C553,-36 523,-36 523,-36 517,-36 511,-30 511,-24 511,-24 511,-12 511,-12 511,-6 517,-0 523,-0 523,-0 553,-0 553,-0 559,-0 565,-6 565,-12 565,-12 565,-24 565,-24 565,-30 559,-36 553,-36"/>
<text text-anchor="middle" x="538" y="-15.5" font-family="sans" font-size="10.00">all</text>
</g>
<!-- 1&#45;&gt;10 -->
<g id="edge12" class="edge"><title>1&#45;&gt;10</title>
<path fill="none" stroke="grey" stroke-width="2" d="M516.921,-71.6966C520.075,-63.8132 523.878,-54.3042 527.381,-45.5464"/>
<polygon fill="grey" stroke="grey" stroke-width="2" points="530.694,-46.689 531.158,-36.1043 524.195,-44.0892 530.694,-46.689"/>
</g>
<!-- 2 -->
<g id="node3" class="node"><title>2</title>
<path fill="none" stroke="#56d8c9" stroke-width="2" d="M574,-612C574,-612 502,-612 502,-612 496,-612 490,-606 490,-600 490,-600 490,-588 490,-588 490,-582 496,-576 502,-576 502,-576 574,-576 574,-576 580,-576 586,-582 586,-588 586,-588 586,-600 586,-600 586,-606 580,-612 574,-612"/>
<text text-anchor="middle" x="538" y="-591.5" font-family="sans" font-size="10.00">makeChromSize</text>
</g>
<!-- 2&#45;&gt;0 -->
<g id="edge2" class="edge"><title>2&#45;&gt;0</title>
<path fill="none" stroke="grey" stroke-width="2" d="M512.559,-575.876C499.213,-566.893 482.676,-555.763 468.222,-546.034"/>
<polygon fill="grey" stroke="grey" stroke-width="2" points="469.789,-542.87 459.539,-540.19 465.881,-548.677 469.789,-542.87"/>
</g>
<!-- 5 -->
<g id="node6" class="node"><title>5</title>
<path fill="none" stroke="#78d856" stroke-width="2" d="M524,-180C524,-180 494,-180 494,-180 488,-180 482,-174 482,-168 482,-168 482,-156 482,-156 482,-150 488,-144 494,-144 494,-144 524,-144 524,-144 530,-144 536,-150 536,-156 536,-156 536,-168 536,-168 536,-174 530,-180 524,-180"/>
<text text-anchor="middle" x="509" y="-159.5" font-family="sans" font-size="10.00">cooler</text>
</g>
<!-- 2&#45;&gt;5 -->
<g id="edge7" class="edge"><title>2&#45;&gt;5</title>
<path fill="none" stroke="grey" stroke-width="2" d="M532.131,-575.743C523.658,-549.246 509,-496.794 509,-451 509,-451 509,-451 509,-305 509,-264.996 509,-218.653 509,-190.08"/>
<polygon fill="grey" stroke="grey" stroke-width="2" points="512.5,-190.049 509,-180.049 505.5,-190.049 512.5,-190.049"/>
</g>
<!-- 9 -->
<g id="node10" class="node"><title>9</title>
<path fill="none" stroke="#56d87b" stroke-width="2" d="M586.5,-252C586.5,-252 549.5,-252 549.5,-252 543.5,-252 537.5,-246 537.5,-240 537.5,-240 537.5,-228 537.5,-228 537.5,-222 543.5,-216 549.5,-216 549.5,-216 586.5,-216 586.5,-216 592.5,-216 598.5,-222 598.5,-228 598.5,-228 598.5,-240 598.5,-240 598.5,-246 592.5,-252 586.5,-252"/>
<text text-anchor="middle" x="568" y="-231.5" font-family="sans" font-size="10.00">juicer_hic</text>
</g>
<!-- 2&#45;&gt;9 -->
<g id="edge10" class="edge"><title>2&#45;&gt;9</title>
<path fill="none" stroke="grey" stroke-width="2" d="M541.845,-575.612C547.397,-548.942 557,-496.268 557,-451 557,-451 557,-451 557,-377 557,-336.876 561.42,-290.565 564.656,-262.032"/>
<polygon fill="grey" stroke="grey" stroke-width="2" points="568.142,-262.355 565.827,-252.016 561.189,-261.542 568.142,-262.355"/>
</g>
<!-- 3 -->
<g id="node4" class="node"><title>3</title>
<path fill="none" stroke="#d87d56" stroke-width="2" d="M462,-252C462,-252 432,-252 432,-252 426,-252 420,-246 420,-240 420,-240 420,-228 420,-228 420,-222 426,-216 432,-216 432,-216 462,-216 462,-216 468,-216 474,-222 474,-228 474,-228 474,-240 474,-240 474,-246 468,-252 462,-252"/>
<text text-anchor="middle" x="447" y="-231.5" font-family="sans" font-size="10.00">bgzip</text>
</g>
<!-- 3&#45;&gt;5 -->
<g id="edge6" class="edge"><title>3&#45;&gt;5</title>
<path fill="none" stroke="grey" stroke-width="2" d="M462.326,-215.697C469.759,-207.305 478.823,-197.07 486.98,-187.861"/>
<polygon fill="grey" stroke="grey" stroke-width="2" points="489.84,-189.911 493.85,-180.104 484.6,-185.27 489.84,-189.911"/>
</g>
<!-- 7 -->
<g id="node8" class="node"><title>7</title>
<path fill="none" stroke="#9fd856" stroke-width="2" d="M468.5,-396C468.5,-396 399.5,-396 399.5,-396 393.5,-396 387.5,-390 387.5,-384 387.5,-384 387.5,-372 387.5,-372 387.5,-366 393.5,-360 399.5,-360 399.5,-360 468.5,-360 468.5,-360 474.5,-360 480.5,-366 480.5,-372 480.5,-372 480.5,-384 480.5,-384 480.5,-390 474.5,-396 468.5,-396"/>
<text text-anchor="middle" x="434" y="-375.5" font-family="sans" font-size="10.00">pairtools_dedup</text>
</g>
<!-- 4&#45;&gt;7 -->
<g id="edge8" class="edge"><title>4&#45;&gt;7</title>
<path fill="none" stroke="grey" stroke-width="2" d="M434,-431.697C434,-423.983 434,-414.712 434,-406.112"/>
<polygon fill="grey" stroke="grey" stroke-width="2" points="437.5,-406.104 434,-396.104 430.5,-406.104 437.5,-406.104"/>
</g>
<!-- 5&#45;&gt;1 -->
<g id="edge3" class="edge"><title>5&#45;&gt;1</title>
<path fill="none" stroke="grey" stroke-width="2" d="M509.247,-143.697C509.357,-135.983 509.49,-126.712 509.613,-118.112"/>
<polygon fill="grey" stroke="grey" stroke-width="2" points="513.112,-118.153 509.756,-108.104 506.113,-118.053 513.112,-118.153"/>
</g>
<!-- 6 -->
<g id="node7" class="node"><title>6</title>
<path fill="none" stroke="#d8c356" stroke-width="2" d="M460,-612C460,-612 12,-612 12,-612 6,-612 0,-606 0,-600 0,-600 0,-588 0,-588 0,-582 6,-576 12,-576 12,-576 460,-576 460,-576 466,-576 472,-582 472,-588 472,-588 472,-600 472,-600 472,-606 466,-612 460,-612"/>
<text text-anchor="middle" x="236" y="-597" font-family="sans" font-size="10.00">bwa_mem</text>
<text text-anchor="middle" x="236" y="-586" font-family="sans" font-size="10.00">prefix: 000000000&#45;JG7P6_HiC_D_Miseq_21s000902&#45;1&#45;1_Clouaire_lane1HiCDDIvAindex13AGTCA</text>
</g>
<!-- 6&#45;&gt;0 -->
<g id="edge1" class="edge"><title>6&#45;&gt;0</title>
<path fill="none" stroke="grey" stroke-width="2" d="M284.183,-575.966C312.774,-565.858 349.122,-553.007 378.856,-542.495"/>
<polygon fill="grey" stroke="grey" stroke-width="2" points="380.403,-545.661 388.665,-539.028 378.07,-539.061 380.403,-545.661"/>
</g>
<!-- 8 -->
<g id="node9" class="node"><title>8</title>
<path fill="none" stroke="#d8a456" stroke-width="2" d="M468.5,-324C468.5,-324 409.5,-324 409.5,-324 403.5,-324 397.5,-318 397.5,-312 397.5,-312 397.5,-300 397.5,-300 397.5,-294 403.5,-288 409.5,-288 409.5,-288 468.5,-288 468.5,-288 474.5,-288 480.5,-294 480.5,-300 480.5,-300 480.5,-312 480.5,-312 480.5,-318 474.5,-324 468.5,-324"/>
<text text-anchor="middle" x="439" y="-303.5" font-family="sans" font-size="10.00">pairtools_split</text>
</g>
<!-- 7&#45;&gt;8 -->
<g id="edge9" class="edge"><title>7&#45;&gt;8</title>
<path fill="none" stroke="grey" stroke-width="2" d="M435.236,-359.697C435.787,-351.983 436.449,-342.712 437.063,-334.112"/>
<polygon fill="grey" stroke="grey" stroke-width="2" points="440.557,-334.328 437.778,-324.104 433.575,-333.83 440.557,-334.328"/>
</g>
<!-- 8&#45;&gt;3 -->
<g id="edge4" class="edge"><title>8&#45;&gt;3</title>
<path fill="none" stroke="grey" stroke-width="2" d="M440.978,-287.697C441.859,-279.983 442.919,-270.712 443.901,-262.112"/>
<polygon fill="grey" stroke="grey" stroke-width="2" points="447.387,-262.437 445.045,-252.104 440.432,-261.642 447.387,-262.437"/>
</g>
<!-- 8&#45;&gt;9 -->
<g id="edge11" class="edge"><title>8&#45;&gt;9</title>
<path fill="none" stroke="grey" stroke-width="2" d="M470.557,-287.876C487.992,-278.415 509.818,-266.572 528.391,-256.493"/>
<polygon fill="grey" stroke="grey" stroke-width="2" points="530.094,-259.551 537.214,-251.706 526.755,-253.399 530.094,-259.551"/>
</g>
<!-- 9&#45;&gt;10 -->
<g id="edge13" class="edge"><title>9&#45;&gt;10</title>
<path fill="none" stroke="grey" stroke-width="2" d="M565.951,-215.577C562.422,-186.007 554.823,-124.128 547,-72 545.734,-63.5634 544.225,-54.3946 542.807,-46.092"/>
<polygon fill="grey" stroke="grey" stroke-width="2" points="546.242,-45.4146 541.086,-36.159 539.345,-46.6097 546.242,-45.4146"/>
</g>
</g>
</svg>
