<?xml version="1.0" encoding="UTF-8" standalone="no"?>
<!DOCTYPE svg PUBLIC "-//W3C//DTD SVG 1.1//EN"
 "http://www.w3.org/Graphics/SVG/1.1/DTD/svg11.dtd">
<!-- Generated by graphviz version 2.38.0 (20140413.2041)
 -->
<!-- Title: snakemake_dag Pages: 1 -->
<svg width="970pt" height="841pt"
 viewBox="0.00 0.00 970.00 841.00" xmlns="http://www.w3.org/2000/svg" xmlns:xlink="http://www.w3.org/1999/xlink">
<g id="graph0" class="graph" transform="scale(1 1) rotate(0) translate(4 837)">
<title>snakemake_dag</title>
<polygon fill="white" stroke="none" points="-4,4 -4,-837 966,-837 966,4 -4,4"/>
<!-- 0 -->
<g id="node1" class="node"><title>0</title>
<path fill="none" stroke="#d87556" stroke-width="2" d="M680,-36C680,-36 650,-36 650,-36 644,-36 638,-30 638,-24 638,-24 638,-12 638,-12 638,-6 644,-0 650,-0 650,-0 680,-0 680,-0 686,-0 692,-6 692,-12 692,-12 692,-24 692,-24 692,-30 686,-36 680,-36"/>
<text text-anchor="middle" x="665" y="-15.5" font-family="sans" font-size="10.00">all</text>
</g>
<!-- 1 -->
<g id="node2" class="node"><title>1</title>
<path fill="none" stroke="#88d856" stroke-width="2" d="M594,-540C594,-540 528,-540 528,-540 522,-540 516,-534 516,-528 516,-528 516,-516 516,-516 516,-510 522,-504 528,-504 528,-504 594,-504 594,-504 600,-504 606,-510 606,-516 606,-516 606,-528 606,-528 606,-534 600,-540 594,-540"/>
<text text-anchor="middle" x="561" y="-519.5" font-family="sans" font-size="10.00">pairtools_parse</text>
</g>
<!-- 2 -->
<g id="node3" class="node"><title>2</title>
<path fill="none" stroke="#68d856" stroke-width="2" d="M590,-468C590,-468 532,-468 532,-468 526,-468 520,-462 520,-456 520,-456 520,-444 520,-444 520,-438 526,-432 532,-432 532,-432 590,-432 590,-432 596,-432 602,-438 602,-444 602,-444 602,-456 602,-456 602,-462 596,-468 590,-468"/>
<text text-anchor="middle" x="561" y="-447.5" font-family="sans" font-size="10.00">pairtools_sort</text>
</g>
<!-- 1&#45;&gt;2 -->
<g id="edge5" class="edge"><title>1&#45;&gt;2</title>
<path fill="none" stroke="grey" stroke-width="2" d="M561,-503.697C561,-495.983 561,-486.712 561,-478.112"/>
<polygon fill="grey" stroke="grey" stroke-width="2" points="564.5,-478.104 561,-468.104 557.5,-478.104 564.5,-478.104"/>
</g>
<!-- 9 -->
<g id="node10" class="node"><title>9</title>
<path fill="none" stroke="#5692d8" stroke-width="2" d="M595.5,-396C595.5,-396 526.5,-396 526.5,-396 520.5,-396 514.5,-390 514.5,-384 514.5,-384 514.5,-372 514.5,-372 514.5,-366 520.5,-360 526.5,-360 526.5,-360 595.5,-360 595.5,-360 601.5,-360 607.5,-366 607.5,-372 607.5,-372 607.5,-384 607.5,-384 607.5,-390 601.5,-396 595.5,-396"/>
<text text-anchor="middle" x="561" y="-375.5" font-family="sans" font-size="10.00">pairtools_dedup</text>
</g>
<!-- 2&#45;&gt;9 -->
<g id="edge14" class="edge"><title>2&#45;&gt;9</title>
<path fill="none" stroke="grey" stroke-width="2" d="M561,-431.697C561,-423.983 561,-414.712 561,-406.112"/>
<polygon fill="grey" stroke="grey" stroke-width="2" points="564.5,-406.104 561,-396.104 557.5,-406.104 564.5,-406.104"/>
</g>
<!-- 3 -->
<g id="node4" class="node"><title>3</title>
<path fill="none" stroke="#d8d356" stroke-width="2" d="M582.5,-612C582.5,-612 437.5,-612 437.5,-612 431.5,-612 425.5,-606 425.5,-600 425.5,-600 425.5,-588 425.5,-588 425.5,-582 431.5,-576 437.5,-576 437.5,-576 582.5,-576 582.5,-576 588.5,-576 594.5,-582 594.5,-588 594.5,-588 594.5,-600 594.5,-600 594.5,-606 588.5,-612 582.5,-612"/>
<text text-anchor="middle" x="510" y="-591.5" font-family="sans" font-size="10.00">bowtie2_merge_mapping_steps</text>
</g>
<!-- 3&#45;&gt;1 -->
<g id="edge3" class="edge"><title>3&#45;&gt;1</title>
<path fill="none" stroke="grey" stroke-width="2" d="M522.607,-575.697C528.597,-567.474 535.876,-557.483 542.479,-548.421"/>
<polygon fill="grey" stroke="grey" stroke-width="2" points="545.478,-550.248 548.538,-540.104 539.821,-546.126 545.478,-550.248"/>
</g>
<!-- 4 -->
<g id="node5" class="node"><title>4</title>
<path fill="none" stroke="#d85656" stroke-width="2" d="M589,-252C589,-252 559,-252 559,-252 553,-252 547,-246 547,-240 547,-240 547,-228 547,-228 547,-222 553,-216 559,-216 559,-216 589,-216 589,-216 595,-216 601,-222 601,-228 601,-228 601,-240 601,-240 601,-246 595,-252 589,-252"/>
<text text-anchor="middle" x="574" y="-231.5" font-family="sans" font-size="10.00">bgzip</text>
</g>
<!-- 15 -->
<g id="node16" class="node"><title>15</title>
<path fill="none" stroke="#56d882" stroke-width="2" d="M651,-180C651,-180 621,-180 621,-180 615,-180 609,-174 609,-168 609,-168 609,-156 609,-156 609,-150 615,-144 621,-144 621,-144 651,-144 651,-144 657,-144 663,-150 663,-156 663,-156 663,-168 663,-168 663,-174 657,-180 651,-180"/>
<text text-anchor="middle" x="636" y="-159.5" font-family="sans" font-size="10.00">cooler</text>
</g>
<!-- 4&#45;&gt;15 -->
<g id="edge19" class="edge"><title>4&#45;&gt;15</title>
<path fill="none" stroke="grey" stroke-width="2" d="M589.326,-215.697C596.759,-207.305 605.823,-197.07 613.98,-187.861"/>
<polygon fill="grey" stroke="grey" stroke-width="2" points="616.84,-189.911 620.85,-180.104 611.6,-185.27 616.84,-189.911"/>
</g>
<!-- 5 -->
<g id="node6" class="node"><title>5</title>
<path fill="none" stroke="#bed856" stroke-width="2" d="M460,-833C460,-833 12,-833 12,-833 6,-833 0,-827 0,-821 0,-821 0,-804 0,-804 0,-798 6,-792 12,-792 12,-792 460,-792 460,-792 466,-792 472,-798 472,-804 472,-804 472,-821 472,-821 472,-827 466,-833 460,-833"/>
<text text-anchor="middle" x="236" y="-821" font-family="sans" font-size="10.00">bowtie2_end_to_end</text>
<text text-anchor="middle" x="236" y="-810" font-family="sans" font-size="10.00">R12: R2</text>
<text text-anchor="middle" x="236" y="-799" font-family="sans" font-size="10.00">prefix: 000000000&#45;JG7P6_HiC_D_Miseq_21s000902&#45;1&#45;1_Clouaire_lane1HiCDDIvAindex13AGTCA</text>
</g>
<!-- 5&#45;&gt;3 -->
<g id="edge6" class="edge"><title>5&#45;&gt;3</title>
<path fill="none" stroke="grey" stroke-width="2" d="M244.825,-791.823C261.129,-757.643 299.187,-687.214 352,-648 371.309,-633.663 394.738,-623.048 417.574,-615.25"/>
<polygon fill="grey" stroke="grey" stroke-width="2" points="418.887,-618.504 427.311,-612.078 416.719,-611.848 418.887,-618.504"/>
</g>
<!-- 6 -->
<g id="node7" class="node"><title>6</title>
<path fill="none" stroke="#d8b456" stroke-width="2" d="M392,-756C392,-756 348,-756 348,-756 342,-756 336,-750 336,-744 336,-744 336,-732 336,-732 336,-726 342,-720 348,-720 348,-720 392,-720 392,-720 398,-720 404,-726 404,-732 404,-732 404,-744 404,-744 404,-750 398,-756 392,-756"/>
<text text-anchor="middle" x="370" y="-735.5" font-family="sans" font-size="10.00">trim_reads</text>
</g>
<!-- 5&#45;&gt;6 -->
<g id="edge11" class="edge"><title>5&#45;&gt;6</title>
<path fill="none" stroke="grey" stroke-width="2" d="M272.262,-791.88C289.819,-782.381 310.972,-770.937 329.102,-761.128"/>
<polygon fill="grey" stroke="grey" stroke-width="2" points="331.142,-764.003 338.272,-756.166 327.811,-757.847 331.142,-764.003"/>
</g>
<!-- 7 -->
<g id="node8" class="node"><title>7</title>
<path fill="none" stroke="#d89556" stroke-width="2" d="M498.5,-684C498.5,-684 373.5,-684 373.5,-684 367.5,-684 361.5,-678 361.5,-672 361.5,-672 361.5,-660 361.5,-660 361.5,-654 367.5,-648 373.5,-648 373.5,-648 498.5,-648 498.5,-648 504.5,-648 510.5,-654 510.5,-660 510.5,-660 510.5,-672 510.5,-672 510.5,-678 504.5,-684 498.5,-684"/>
<text text-anchor="middle" x="436" y="-663.5" font-family="sans" font-size="10.00">bowtie2_on_trimmed_reads</text>
</g>
<!-- 6&#45;&gt;7 -->
<g id="edge12" class="edge"><title>6&#45;&gt;7</title>
<path fill="none" stroke="grey" stroke-width="2" d="M386.315,-719.697C394.307,-711.22 404.072,-700.864 412.822,-691.583"/>
<polygon fill="grey" stroke="grey" stroke-width="2" points="415.559,-693.781 419.873,-684.104 410.466,-688.979 415.559,-693.781"/>
</g>
<!-- 7&#45;&gt;3 -->
<g id="edge9" class="edge"><title>7&#45;&gt;3</title>
<path fill="none" stroke="grey" stroke-width="2" d="M454.292,-647.697C463.433,-639.05 474.64,-628.449 484.6,-619.027"/>
<polygon fill="grey" stroke="grey" stroke-width="2" points="487.059,-621.519 491.918,-612.104 482.248,-616.434 487.059,-621.519"/>
</g>
<!-- 8 -->
<g id="node9" class="node"><title>8</title>
<path fill="none" stroke="#56b1d8" stroke-width="2" d="M653,-108C653,-108 621,-108 621,-108 615,-108 609,-102 609,-96 609,-96 609,-84 609,-84 609,-78 615,-72 621,-72 621,-72 653,-72 653,-72 659,-72 665,-78 665,-84 665,-84 665,-96 665,-96 665,-102 659,-108 653,-108"/>
<text text-anchor="middle" x="637" y="-87.5" font-family="sans" font-size="10.00">mcooler</text>
</g>
<!-- 8&#45;&gt;0 -->
<g id="edge1" class="edge"><title>8&#45;&gt;0</title>
<path fill="none" stroke="grey" stroke-width="2" d="M643.921,-71.6966C647.075,-63.8132 650.878,-54.3042 654.381,-45.5464"/>
<polygon fill="grey" stroke="grey" stroke-width="2" points="657.694,-46.689 658.158,-36.1043 651.195,-44.0892 657.694,-46.689"/>
</g>
<!-- 14 -->
<g id="node15" class="node"><title>14</title>
<path fill="none" stroke="#5673d8" stroke-width="2" d="M595.5,-324C595.5,-324 536.5,-324 536.5,-324 530.5,-324 524.5,-318 524.5,-312 524.5,-312 524.5,-300 524.5,-300 524.5,-294 530.5,-288 536.5,-288 536.5,-288 595.5,-288 595.5,-288 601.5,-288 607.5,-294 607.5,-300 607.5,-300 607.5,-312 607.5,-312 607.5,-318 601.5,-324 595.5,-324"/>
<text text-anchor="middle" x="566" y="-303.5" font-family="sans" font-size="10.00">pairtools_split</text>
</g>
<!-- 9&#45;&gt;14 -->
<g id="edge18" class="edge"><title>9&#45;&gt;14</title>
<path fill="none" stroke="grey" stroke-width="2" d="M562.236,-359.697C562.787,-351.983 563.449,-342.712 564.063,-334.112"/>
<polygon fill="grey" stroke="grey" stroke-width="2" points="567.557,-334.328 564.778,-324.104 560.575,-333.83 567.557,-334.328"/>
</g>
<!-- 10 -->
<g id="node11" class="node"><title>10</title>
<path fill="none" stroke="#56d863" stroke-width="2" d="M713.5,-252C713.5,-252 676.5,-252 676.5,-252 670.5,-252 664.5,-246 664.5,-240 664.5,-240 664.5,-228 664.5,-228 664.5,-222 670.5,-216 676.5,-216 676.5,-216 713.5,-216 713.5,-216 719.5,-216 725.5,-222 725.5,-228 725.5,-228 725.5,-240 725.5,-240 725.5,-246 719.5,-252 713.5,-252"/>
<text text-anchor="middle" x="695" y="-231.5" font-family="sans" font-size="10.00">juicer_hic</text>
</g>
<!-- 10&#45;&gt;0 -->
<g id="edge2" class="edge"><title>10&#45;&gt;0</title>
<path fill="none" stroke="grey" stroke-width="2" d="M692.951,-215.577C689.422,-186.007 681.823,-124.128 674,-72 672.734,-63.5634 671.225,-54.3946 669.807,-46.092"/>
<polygon fill="grey" stroke="grey" stroke-width="2" points="673.242,-45.4146 668.086,-36.159 666.345,-46.6097 673.242,-45.4146"/>
</g>
<!-- 11 -->
<g id="node12" class="node"><title>11</title>
<path fill="none" stroke="#bed856" stroke-width="2" d="M950,-833C950,-833 502,-833 502,-833 496,-833 490,-827 490,-821 490,-821 490,-804 490,-804 490,-798 496,-792 502,-792 502,-792 950,-792 950,-792 956,-792 962,-798 962,-804 962,-804 962,-821 962,-821 962,-827 956,-833 950,-833"/>
<text text-anchor="middle" x="726" y="-821" font-family="sans" font-size="10.00">bowtie2_end_to_end</text>
<text text-anchor="middle" x="726" y="-810" font-family="sans" font-size="10.00">R12: R1</text>
<text text-anchor="middle" x="726" y="-799" font-family="sans" font-size="10.00">prefix: 000000000&#45;JG7P6_HiC_D_Miseq_21s000902&#45;1&#45;1_Clouaire_lane1HiCDDIvAindex13AGTCA</text>
</g>
<!-- 11&#45;&gt;3 -->
<g id="edge8" class="edge"><title>11&#45;&gt;3</title>
<path fill="none" stroke="grey" stroke-width="2" d="M706.45,-791.905C666.97,-752.333 577.808,-662.965 534.512,-619.568"/>
<polygon fill="grey" stroke="grey" stroke-width="2" points="536.77,-616.877 527.229,-612.269 531.815,-621.821 536.77,-616.877"/>
</g>
<!-- 13 -->
<g id="node14" class="node"><title>13</title>
<path fill="none" stroke="#d8b456" stroke-width="2" d="M742,-756C742,-756 698,-756 698,-756 692,-756 686,-750 686,-744 686,-744 686,-732 686,-732 686,-726 692,-720 698,-720 698,-720 742,-720 742,-720 748,-720 754,-726 754,-732 754,-732 754,-744 754,-744 754,-750 748,-756 742,-756"/>
<text text-anchor="middle" x="720" y="-735.5" font-family="sans" font-size="10.00">trim_reads</text>
</g>
<!-- 11&#45;&gt;13 -->
<g id="edge17" class="edge"><title>11&#45;&gt;13</title>
<path fill="none" stroke="grey" stroke-width="2" d="M724.36,-791.689C723.716,-783.907 722.966,-774.842 722.271,-766.447"/>
<polygon fill="grey" stroke="grey" stroke-width="2" points="725.746,-765.997 721.433,-756.319 718.77,-766.574 725.746,-765.997"/>
</g>
<!-- 12 -->
<g id="node13" class="node"><title>12</title>
<path fill="none" stroke="#56d8c1" stroke-width="2" d="M697,-612C697,-612 625,-612 625,-612 619,-612 613,-606 613,-600 613,-600 613,-588 613,-588 613,-582 619,-576 625,-576 625,-576 697,-576 697,-576 703,-576 709,-582 709,-588 709,-588 709,-600 709,-600 709,-606 703,-612 697,-612"/>
<text text-anchor="middle" x="661" y="-591.5" font-family="sans" font-size="10.00">makeChromSize</text>
</g>
<!-- 12&#45;&gt;1 -->
<g id="edge4" class="edge"><title>12&#45;&gt;1</title>
<path fill="none" stroke="grey" stroke-width="2" d="M636.537,-575.876C623.704,-566.893 607.804,-555.763 593.906,-546.034"/>
<polygon fill="grey" stroke="grey" stroke-width="2" points="595.756,-543.057 585.557,-540.19 591.742,-548.792 595.756,-543.057"/>
</g>
<!-- 12&#45;&gt;10 -->
<g id="edge16" class="edge"><title>12&#45;&gt;10</title>
<path fill="none" stroke="grey" stroke-width="2" d="M665.857,-575.671C672.87,-549.079 685,-496.504 685,-451 685,-451 685,-451 685,-377 685,-336.897 689.018,-290.58 691.96,-262.04"/>
<polygon fill="grey" stroke="grey" stroke-width="2" points="695.448,-262.336 693.024,-252.022 688.487,-261.596 695.448,-262.336"/>
</g>
<!-- 12&#45;&gt;15 -->
<g id="edge20" class="edge"><title>12&#45;&gt;15</title>
<path fill="none" stroke="grey" stroke-width="2" d="M655.941,-575.684C648.636,-549.11 636,-496.558 636,-451 636,-451 636,-451 636,-305 636,-264.996 636,-218.653 636,-190.08"/>
<polygon fill="grey" stroke="grey" stroke-width="2" points="639.5,-190.049 636,-180.049 632.5,-190.049 639.5,-190.049"/>
</g>
<!-- 16 -->
<g id="node17" class="node"><title>16</title>
<path fill="none" stroke="#d89556" stroke-width="2" d="M771.5,-684C771.5,-684 646.5,-684 646.5,-684 640.5,-684 634.5,-678 634.5,-672 634.5,-672 634.5,-660 634.5,-660 634.5,-654 640.5,-648 646.5,-648 646.5,-648 771.5,-648 771.5,-648 777.5,-648 783.5,-654 783.5,-660 783.5,-660 783.5,-672 783.5,-672 783.5,-678 777.5,-684 771.5,-684"/>
<text text-anchor="middle" x="709" y="-663.5" font-family="sans" font-size="10.00">bowtie2_on_trimmed_reads</text>
</g>
<!-- 13&#45;&gt;16 -->
<g id="edge21" class="edge"><title>13&#45;&gt;16</title>
<path fill="none" stroke="grey" stroke-width="2" d="M717.281,-719.697C716.069,-711.983 714.612,-702.712 713.261,-694.112"/>
<polygon fill="grey" stroke="grey" stroke-width="2" points="716.698,-693.44 711.688,-684.104 709.783,-694.526 716.698,-693.44"/>
</g>
<!-- 14&#45;&gt;4 -->
<g id="edge10" class="edge"><title>14&#45;&gt;4</title>
<path fill="none" stroke="grey" stroke-width="2" d="M567.978,-287.697C568.859,-279.983 569.919,-270.712 570.901,-262.112"/>
<polygon fill="grey" stroke="grey" stroke-width="2" points="574.387,-262.437 572.045,-252.104 567.432,-261.642 574.387,-262.437"/>
</g>
<!-- 14&#45;&gt;10 -->
<g id="edge15" class="edge"><title>14&#45;&gt;10</title>
<path fill="none" stroke="grey" stroke-width="2" d="M597.557,-287.876C614.992,-278.415 636.818,-266.572 655.391,-256.493"/>
<polygon fill="grey" stroke="grey" stroke-width="2" points="657.094,-259.551 664.214,-251.706 653.755,-253.399 657.094,-259.551"/>
</g>
<!-- 15&#45;&gt;8 -->
<g id="edge13" class="edge"><title>15&#45;&gt;8</title>
<path fill="none" stroke="grey" stroke-width="2" d="M636.247,-143.697C636.357,-135.983 636.49,-126.712 636.613,-118.112"/>
<polygon fill="grey" stroke="grey" stroke-width="2" points="640.112,-118.153 636.756,-108.104 633.113,-118.053 640.112,-118.153"/>
</g>
<!-- 16&#45;&gt;3 -->
<g id="edge7" class="edge"><title>16&#45;&gt;3</title>
<path fill="none" stroke="grey" stroke-width="2" d="M660.574,-647.966C632.769,-638.185 597.664,-625.836 568.346,-615.524"/>
<polygon fill="grey" stroke="grey" stroke-width="2" points="569.238,-612.127 558.644,-612.111 566.916,-618.731 569.238,-612.127"/>
</g>
</g>
</svg>
